<?xml version="1.0" encoding="UTF-8" standalone="no"?>
<!-- Created with Inkscape (http://www.inkscape.org/) -->

<svg
   xmlns:dc="http://purl.org/dc/elements/1.1/"
   xmlns:cc="http://creativecommons.org/ns#"
   xmlns:rdf="http://www.w3.org/1999/02/22-rdf-syntax-ns#"
   xmlns:svg="http://www.w3.org/2000/svg"
   xmlns="http://www.w3.org/2000/svg"
   xmlns:sodipodi="http://sodipodi.sourceforge.net/DTD/sodipodi-0.dtd"
   xmlns:inkscape="http://www.inkscape.org/namespaces/inkscape"
   width="255.65625"
   height="242.40625"
   id="svg2"
   version="1.1"
   inkscape:version="0.48.4 r9939"
   sodipodi:docname="logo.svg">
  <defs
     id="defs4" />
  <sodipodi:namedview
     id="base"
     pagecolor="#ffffff"
     bordercolor="#666666"
     borderopacity="1.0"
     inkscape:pageopacity="0.0"
     inkscape:pageshadow="2"
     inkscape:zoom="0.7"
     inkscape:cx="63.27653"
     inkscape:cy="-218.02894"
     inkscape:document-units="px"
     inkscape:current-layer="layer4"
     showgrid="false"
     inkscape:window-width="1920"
     inkscape:window-height="1178"
     inkscape:window-x="1272"
     inkscape:window-y="-8"
     inkscape:window-maximized="1"
     fit-margin-top="0"
     fit-margin-left="0"
     fit-margin-right="0"
     fit-margin-bottom="0" />
  <metadata
     id="metadata7">
    <rdf:RDF>
      <cc:Work
         rdf:about="">
        <dc:format>image/svg+xml</dc:format>
        <dc:type
           rdf:resource="http://purl.org/dc/dcmitype/StillImage" />
        <dc:title></dc:title>
      </cc:Work>
    </rdf:RDF>
  </metadata>
  <g
     inkscape:label="Ebene 1"
     inkscape:groupmode="layer"
     id="layer1"
     style="display:inline"
     transform="translate(-248.09375,-324.65625)">
    <rect
       style="fill:none;stroke:#55b7ff;stroke-width:4;stroke-miterlimit:4;stroke-opacity:1;stroke-dasharray:none;stroke-dashoffset:0"
       id="rect2985"
       width="244.60579"
       height="238.41325"
       x="254.28572"
       y="326.64789" />
  </g>
  <g
     inkscape:groupmode="layer"
     id="layer2"
     inkscape:label="Ebene"
     style="display:inline"
     transform="translate(-248.09375,-324.65625)">
    <path
       style="fill:#55c5ff;fill-opacity:1;stroke:#55c5ff;stroke-width:3;stroke-linecap:butt;stroke-linejoin:miter;stroke-miterlimit:4;stroke-opacity:1;stroke-dasharray:none"
       d="m 255.56859,497.78844 244.45692,0"
       id="path3756"
       inkscape:connector-curvature="0" />
  </g>
  <g
     inkscape:groupmode="layer"
     id="layer3"
     inkscape:label="berg"
     style="display:inline"
     transform="translate(-248.09375,-324.65625)">
    <path
       style="fill:#00acff;fill-opacity:1;stroke:#00acff;stroke-width:3;stroke-miterlimit:4;stroke-opacity:1;stroke-dasharray:none;stroke-dashoffset:0"
       id="path3789"
       d="m 267.38095,482.62982 c 6.62078,-3.77716 15.5964,-8.27932 -15.8666,9.0461 -0.59442,0.32733 1.10336,-0.79223 1.62499,-1.22626 1.2406,-1.03226 1.86983,-1.75206 2.98712,-2.91445 3.30188,-3.7011 6.10572,-7.79562 9.03218,-11.78832 2.52312,-3.34175 5.46568,-6.33853 8.36208,-9.35364 7.63259,-7.17417 16.74254,-10.90639 26.14793,-16.24513 3.13646,-0.89666 4.67506,0.12986 6.76806,2.42966 1.4502,2.24698 3.12372,4.31935 4.73644,6.44491 1.54278,1.77749 3.40827,3.26179 5.37962,4.53785 1.95677,1.15326 3.81818,2.41541 5.63002,3.78828 1.75684,1.06478 3.01439,1.88452 4.33599,-0.11598 -6.25251,3.60968 -12.50502,7.21935 -18.75753,10.82902 0.75343,-0.50272 1.05768,-0.63831 1.68044,-1.3687 1.04046,-1.22028 1.8695,-2.70326 2.7898,-4.01474 2.55211,-3.495 4.9763,-7.08125 7.48216,-10.60986 2.19168,-2.96187 4.27496,-5.98432 6.15637,-9.1523 1.19089,-2.26371 2.53733,-4.43603 3.75433,-6.68422 1.27079,-2.7486 2.73914,-5.4019 4.03232,-8.1378 1.16402,-2.58413 2.6045,-5.03492 3.95431,-7.52588 1.49157,-2.46188 3.01959,-4.8917 4.48269,-7.37109 1.51355,-2.94459 3.21833,-5.77547 4.91457,-8.61492 1.56353,-2.55058 3.03591,-5.14826 4.3692,-7.82655 1.09611,-2.40473 2.48809,-4.61978 4.00076,-6.77729 1.44115,-1.9559 2.55613,-4.11998 3.70186,-6.2543 1.15919,-2.31818 2.64742,-4.42708 4.10513,-6.56014 1.54577,-2.58498 3.27529,-5.04753 4.86476,-7.6052 1.50732,-2.17303 2.50661,-4.55071 3.33898,-7.03868 0.91405,-2.07901 1.77872,-4.18076 2.80076,-6.20975 0.98056,-1.57868 2.15994,-2.98576 3.15707,-4.55376 1.1802,-1.63229 2.52181,-3.12297 3.65478,-4.79572 14.16922,-8.53294 19.12555,-18.80821 25.31467,-6.18063 1.57641,2.7181 2.80682,5.60428 3.99766,8.50539 1.13489,2.79078 2.69833,5.36714 3.81242,8.16545 1.29846,2.70698 2.24292,5.55508 3.07688,8.43392 0.41421,2.43475 1.16904,4.74045 1.98031,7.06233 0.7154,2.10741 1.25651,4.27523 2.02734,6.36223 1.04536,2.71326 2.23243,5.36467 3.12309,8.13474 0.57082,2.13171 1.64429,4.06125 2.34196,6.14465 0.52493,1.87131 0.89882,3.79304 1.64493,5.59175 1.04103,2.04868 1.52934,4.28664 2.07764,6.4989 0.72605,2.27347 1.78265,4.40175 2.42015,6.70936 0.40981,1.7955 0.90887,3.56977 1.37567,5.35213 0.62317,1.96004 1.36731,3.85943 1.81425,5.87288 0.47744,1.73046 1.10052,3.41419 1.63511,5.1264 0.78252,1.47782 0.66542,3.85999 2.13333,4.8575 0.14715,-0.0543 0.34237,-0.0412 0.44145,-0.16276 0.21165,-0.25969 0.72758,-1.06385 0.43111,-0.90786 -6.34712,3.33942 -12.44998,7.12624 -18.75324,10.54773 -0.39938,0.21679 0.69667,-0.58659 1.0095,-0.9162 0.82173,-0.86578 0.98862,-1.25509 1.61395,-2.26877 1.60175,-3.12418 2.64206,-6.48488 3.87496,-9.76148 0.94289,-3.5315 2.18551,-6.95645 3.35726,-10.41679 1.07085,-2.8871 1.90513,-5.85084 2.91843,-8.75708 0.84613,-2.59737 1.59438,-5.22347 2.25829,-7.87276 0.79958,-2.56262 2.05343,-4.95296 3.15918,-7.39187 1.26327,-2.646 2.43492,-5.36806 4.05164,-7.82312 5.40903,-6.60235 2.40694,-3.12246 21.31515,-11.35316 0.47438,-0.20649 0.68461,0.7811 0.96352,1.21686 0.83069,1.29784 1.28485,2.89376 1.86383,4.31081 1.11576,3.86082 2.2258,7.73446 3.21583,11.63296 1.08505,4.11508 1.53771,8.35866 2.58023,12.47936 1.14442,4.39409 2.44312,8.74143 3.74895,13.08951 1.26842,3.76312 2.42296,7.56781 3.71345,11.32267 1.11401,2.99319 2.12463,6.01843 3.08745,9.06239 0.83296,2.99427 2.15252,5.81678 3.11657,8.76346 0.82632,2.67359 1.98461,5.24685 3.13109,7.7989 0.9954,2.45357 2.32983,4.71078 3.27272,7.18668 1.06387,2.57994 2.2647,5.09736 3.31319,7.6838 0.91992,2.74854 2.2326,5.3305 3.26332,8.03332 0.39185,1.24382 0.81232,2.47821 1.21953,3.71702 0,0 -20.04285,11.00165 -20.04285,11.00165 l 0,0 c -0.37327,-1.21765 -0.80309,-2.41664 -1.12211,-3.65037 -0.96438,-2.70594 -2.32172,-5.25128 -3.24177,-7.97789 -1.01996,-2.60031 -2.23989,-5.11684 -3.31553,-7.69409 -0.98378,-2.41319 -2.24418,-4.67485 -3.22956,-7.08718 -1.18449,-2.63322 -2.33264,-5.2999 -3.22666,-8.04649 -0.91037,-2.97036 -2.19543,-5.81014 -3.13807,-8.77148 -0.9165,-3.04219 -1.8624,-6.06956 -2.94338,-9.05822 -1.31003,-3.7944 -2.35584,-7.67618 -3.65694,-11.47448 -1.25068,-4.38131 -2.62203,-8.72646 -3.79673,-13.13034 -1.13313,-4.10772 -1.5406,-8.36771 -2.6647,-12.48157 -0.89342,-3.78969 -1.97721,-7.55032 -3.12426,-11.26627 -5.8e-4,-10e-4 -1.13621,-2.58689 -1.20506,-2.72736 -0.12032,-0.2455 -0.2206,-0.51195 -0.40661,-0.71233 -0.0593,-0.0638 -0.33703,0.0358 -0.26119,-0.007 19.29755,-10.90056 26.80772,-12.69251 18.74351,-10.6882 -2.38868,1.70208 -3.14222,4.7169 -4.55676,7.16756 -0.99781,2.38646 -2.006,4.75006 -3.15282,7.06632 -0.87962,2.6332 -1.47256,5.38251 -2.29006,8.03448 -1.04985,2.91158 -1.86521,5.88149 -3.01001,8.75681 -1.15908,3.48803 -2.63575,6.8562 -3.33382,10.47811 -0.20407,0.56747 -0.40813,1.13494 -0.6122,1.7024 -0.23564,0.55214 -0.50016,1.09282 -0.70692,1.65641 -0.80274,2.1882 -1.31394,4.49389 -2.37824,6.58609 -3.70816,9.40831 -12.45206,10.57119 -22.75071,16.10576 -0.41894,0.22515 -0.9547,-0.12582 -1.39223,-0.3123 -0.36106,-0.15389 -0.63691,-0.45884 -0.95536,-0.68826 -1.41981,-1.72156 -1.90359,-3.77757 -2.66012,-5.83905 -0.5235,-1.79251 -1.24454,-3.51742 -1.72249,-5.32618 -0.35395,-1.97613 -1.07449,-3.80257 -1.74453,-5.68493 -0.56989,-1.77751 -0.96375,-3.6349 -1.37272,-5.45204 -0.53397,-2.34924 -1.59294,-4.47466 -2.39259,-6.73469 -0.52062,-2.0812 -0.9794,-4.20104 -1.926,-6.13998 -0.84568,-1.84668 -1.33484,-3.82192 -1.80573,-5.79211 -0.60873,-2.12595 -1.69214,-4.07789 -2.23287,-6.23108 -0.77052,-2.75544 -1.98532,-5.3148 -3.06859,-7.95502 -0.85984,-2.09163 -1.45644,-4.27728 -2.11554,-6.43727 -0.77722,-2.38737 -1.69947,-4.70562 -1.94828,-7.23113 -0.73123,-2.83532 -1.70179,-5.6084 -3.02698,-8.22465 -0.98944,-2.83472 -2.56878,-5.38306 -3.7082,-8.15587 -1.13959,-2.86007 -2.40666,-5.68328 -3.92759,-8.36234 -0.51441,-1.05778 -1.03356,-2.39487 -2.14866,-2.99148 -0.72349,-0.3871 -1.02531,0.35554 -1.01505,0.34955 6.31062,-3.68919 12.56833,-7.46816 18.85249,-11.20223 -1.67185,1.0595 -2.18265,3.24433 -3.84313,4.39078 -0.55253,0.76991 -0.93937,1.56821 -1.43253,2.366 -0.77657,1.25626 -0.26487,0.21819 -1.19741,1.32339 -0.21733,0.25757 -0.37517,0.55995 -0.56276,0.83993 -1.44062,1.69689 -1.99824,3.90182 -2.99489,5.86435 -1.28427,2.33894 -1.46424,5.26332 -3.32662,7.3614 -0.75468,1.32694 -1.50896,2.72053 -2.34919,3.99299 -0.81255,1.23055 -1.9369,2.26384 -2.45758,3.68679 -1.3339,2.16192 -2.9542,4.12678 -4.07833,6.41237 -1.30921,2.12032 -2.25639,4.4168 -3.65069,6.48943 -1.53035,2.05681 -2.9917,4.12614 -4.16785,6.39929 -1.25904,2.76892 -2.66976,5.4781 -4.40445,7.98315 -1.47216,2.93818 -3.49102,5.5668 -4.86102,8.57175 -1.27494,2.61065 -2.84781,5.00721 -4.44917,7.42437 -1.44795,2.39034 -2.59977,4.93189 -4.06894,7.31301 -1.15168,2.81006 -2.7966,5.35403 -3.89518,8.1938 -1.09512,2.39286 -2.50781,4.56834 -3.86151,6.81848 -1.67948,3.4058 -3.93036,6.45776 -6.22609,9.47221 -2.44719,3.51562 -4.91081,7.01824 -7.31495,10.56286 -0.69881,0.94877 -1.30157,1.73065 -1.93064,2.72378 -0.5008,0.7906 -0.83887,1.67691 -1.34123,2.46652 -4.42251,6.95128 -29.05204,-0.17676 -21.13132,12.82099 -2.21884,0.24194 -4.0937,-0.73887 -5.8464,-2.05329 -1.80701,-1.31952 -3.66109,-2.54233 -5.54837,-3.74373 -2.07711,-1.51719 -4.11731,-3.10785 -5.72285,-5.14073 -1.62223,-2.01385 -3.0428,-4.15194 -4.60264,-6.21187 -1.80045,-1.60186 -3.17994,-1.11504 -5.18735,-0.11428 6.19147,-3.58481 12.38294,-7.16962 18.5744,-10.75443 -1.07917,0.53475 -1.24845,0.56063 -2.24277,1.30017 -1.20951,0.8996 -2.3035,1.95957 -3.53468,2.8333 -3.19165,2.62296 -5.92125,6.05157 -8.75292,9.05883 -2.96074,3.9708 -5.76909,8.05515 -8.84628,11.94021 -7.14224,8.53048 -17.22557,14.73744 -27.94931,17.76835 0,0 18.37578,-13.91313 18.37578,-13.91313 z"
       inkscape:connector-curvature="0" />
  </g>
  <g
     inkscape:groupmode="layer"
     id="layer7"
     inkscape:label="hintregrundunten"
     style="display:inline"
     transform="translate(-248.09375,-324.65625)">
    <path
       style="fill:#ffffff;fill-opacity:1;stroke:#00acff;stroke-width:4.28571415;stroke-miterlimit:4;stroke-opacity:1;stroke-dasharray:none;stroke-dashoffset:0"
       d="m 256.91666,531.46377 0,-31.42857 110.68707,0 110.68708,0 0.88425,3.52315 0.88425,3.52316 6.95261,-3.52316 c 3.82394,-1.93773 7.29541,-3.52315 7.7144,-3.52315 0.41897,0 0.76177,14.14285 0.76177,31.42857 l 0,31.42857 -119.28571,0 -119.28572,0 0,-31.42857 z"
       id="path3851"
       inkscape:connector-curvature="0" />
  </g>
  <g
     inkscape:groupmode="layer"
     id="layer4"
     inkscape:label="Ebene#1"
     style="display:inline"
     transform="translate(-248.09375,-324.65625)">
    <text
       xml:space="preserve"
       style="font-size:40px;font-style:normal;font-variant:normal;font-weight:bold;font-stretch:normal;line-height:125%;letter-spacing:0px;word-spacing:0px;fill:#686868;fill-opacity:1;stroke:none;font-family:Aharoni;-inkscape-font-specification:Aharoni Bold"
       x="278.72089"
       y="545.66376"
       id="text3792"
       sodipodi:linespacing="125%"><tspan
         sodipodi:role="line"
         id="tspan3794"
         x="278.72089"
         y="545.66376"
         style="font-style:normal;font-variant:normal;font-weight:bold;font-stretch:normal;letter-spacing:23.5100193px;word-spacing:7.68000269px;fill:#686868;fill-opacity:1;font-family:Aharoni;-inkscape-font-specification:Aharoni Bold"
         dx="20.17"
         dy="0">REST</tspan></text>
    <path
       style="fill:#ff0000;fill-opacity:1;stroke:#55b7ff;stroke-width:3.03045774;stroke-miterlimit:4;stroke-opacity:1;stroke-dasharray:none;stroke-dashoffset:0"
       d="m 263.01486,492.80093 c 7.10656,-4.09248 13.75646,-10.2209 19.33573,-17.81949 l 4.78769,-6.52051 2.84838,3.45557 c 4.38095,5.31486 14.54406,11.69016 18.63571,11.69016 3.19025,0 3.36928,-0.16199 2.32843,-2.10683 -0.62014,-1.15875 -0.97706,-2.21623 -0.79315,-2.34996 3.21169,-2.33534 8.324,-4.51563 11.82511,-5.04315 2.43082,-0.36627 5.23627,-1.10296 6.23434,-1.63711 3.05171,-1.63323 18.04996,-23.82602 25.18855,-37.27132 7.87052,-14.82384 16.68049,-30.25574 26.57282,-46.54597 10.40581,-17.13581 9.38615,-16.10046 11.31864,-11.49288 1.91888,4.57516 18.00683,52.73798 22.63299,67.75685 3.24825,10.54546 4.9818,13.43655 8.05684,13.43655 1.94903,0 16.95089,-7.22834 19.31984,-9.30887 3.60152,-3.16304 5.25625,-6.02252 7.96688,-13.76734 l 2.88073,-8.23083 1.75832,6.2666 c 3.79747,13.53407 12.65925,39.15993 16.69382,48.27395 2.33646,5.27805 4.64355,10.61923 5.12686,11.86929 l 0.87873,2.27285 -109.32401,-0.009 -109.32401,-0.009 5.05076,-2.90859 0,-7.8e-4 z"
       id="path3796"
       inkscape:connector-curvature="0" />
  </g>
  <g
     inkscape:groupmode="layer"
     id="layer5"
     inkscape:label="Ebene#2"
     style="display:inline"
     transform="translate(-248.09375,-324.65625)">
    <path
       style="fill:#ffff57;fill-opacity:1;stroke:#00acff;stroke-width:3.03045774;stroke-miterlimit:4;stroke-opacity:1;stroke-dasharray:none;stroke-dashoffset:0"
       d="m 256.44887,406.48063 0,-77.42731 120.20815,0 120.20815,0 0,72.39426 c 0,39.81684 -0.18964,72.20462 -0.42144,71.97283 -0.23179,-0.2318 -2.45549,-5.42146 -4.94155,-11.53258 -5.66323,-13.92111 -13.22483,-37.10177 -15.89319,-48.72175 -5.24068,-22.82178 -7.20604,-28.55437 -9.78949,-28.55437 -0.6959,0 -5.3786,1.64633 -10.40601,3.65851 -11.22004,4.49075 -14.88175,8.86109 -20.19965,24.10887 -1.12543,3.2269 -1.984,4.51316 -2.36784,3.54734 -0.86592,-2.17883 -7.14488,-20.56894 -12.24388,-35.86041 -5.0761,-15.22283 -12.61935,-31.79989 -15.83239,-34.7933 -3.52016,-3.27952 -6.71661,-2.55271 -15.76033,3.58362 -9.78732,6.64087 -14.08783,11.54018 -18.57862,21.16548 -1.79979,3.85756 -5.84155,11.10486 -8.98171,16.10511 -7.69974,12.26076 -28.06684,47.71805 -32.72116,56.96461 -4.23682,8.41714 -10.55741,18.29176 -11.70826,18.29176 -0.41937,0 -2.21527,-1.70463 -3.99088,-3.78807 -7.33464,-8.6062 -8.23036,-9.34391 -11.34508,-9.34391 -4.43213,0 -24.01721,11.4019 -30.2728,17.624 -2.82255,2.80743 -7.34368,8.01327 -10.04696,11.56853 l -4.91506,6.46409 0,-77.42731 z"
       id="path3799"
       inkscape:connector-curvature="0" />
  </g>
  <g
     inkscape:groupmode="layer"
     id="layer6"
     inkscape:label="Ebene#3"
     style="display:inline"
     transform="translate(-248.09375,-324.65625)" />
</svg>
